{
	"patcher" : 	{
		"fileversion" : 1,
		"appversion" : 		{
			"major" : 7,
			"minor" : 3,
			"revision" : 6,
			"architecture" : "x86",
			"modernui" : 1
		}
,
		"rect" : [ 34.0, 56.0, 1612.0, 960.0 ],
		"bglocked" : 0,
		"openinpresentation" : 0,
		"default_fontsize" : 12.0,
		"default_fontface" : 0,
		"default_fontname" : "Arial",
		"gridonopen" : 1,
		"gridsize" : [ 15.0, 15.0 ],
		"gridsnaponopen" : 1,
		"objectsnaponopen" : 1,
		"statusbarvisible" : 2,
		"toolbarvisible" : 1,
		"lefttoolbarpinned" : 0,
		"toptoolbarpinned" : 0,
		"righttoolbarpinned" : 0,
		"bottomtoolbarpinned" : 0,
		"toolbars_unpinned_last_save" : 0,
		"tallnewobj" : 0,
		"boxanimatetime" : 200,
		"enablehscroll" : 1,
		"enablevscroll" : 1,
		"devicewidth" : 0.0,
		"description" : "",
		"digest" : "",
		"tags" : "",
		"style" : "",
		"subpatcher_template" : "",
		"boxes" : [ 			{
				"box" : 				{
					"data" : 					{
						"clips" : [ 							{
								"filename" : "Atelier Final Scene 3.wav",
								"filekind" : "audiofile",
								"loop" : 0,
								"content_state" : 								{
									"originallength" : [ 0.0, "ticks" ],
									"formant" : [ 1.0 ],
									"mode" : [ "basic" ],
									"originaltempo" : [ 120.0 ],
									"originallengthms" : [ 0.0 ],
									"speed" : [ 1.0 ],
									"slurtime" : [ 0.0 ],
									"basictuning" : [ 440 ],
									"pitchcorrection" : [ 0 ],
									"followglobaltempo" : [ 0 ],
									"play" : [ 0 ],
									"timestretch" : [ 0 ],
									"formantcorrection" : [ 0 ],
									"quality" : [ "basic" ],
									"pitchshift" : [ 1.0 ]
								}

							}
 ]
					}
,
					"id" : "obj-2",
					"maxclass" : "playlist~",
					"numinlets" : 1,
					"numoutlets" : 5,
					"outlettype" : [ "signal", "signal", "signal", "", "dictionary" ],
					"patching_rect" : [ 589.0, 164.0, 150.0, 30.0 ],
					"style" : ""
				}

			}
, 			{
				"box" : 				{
					"data" : 					{
						"clips" : [ 							{
								"filename" : "Atelier Final Scene 2 copy.mp3",
								"filekind" : "audiofile",
								"loop" : 1,
								"content_state" : 								{
									"originallength" : [ 0.0, "ticks" ],
									"formant" : [ 1.0 ],
									"mode" : [ "basic" ],
									"originaltempo" : [ 120.0 ],
									"originallengthms" : [ 0.0 ],
									"speed" : [ 1.0 ],
									"slurtime" : [ 0.0 ],
									"basictuning" : [ 440 ],
									"pitchcorrection" : [ 0 ],
									"followglobaltempo" : [ 0 ],
									"play" : [ 0 ],
									"timestretch" : [ 0 ],
									"formantcorrection" : [ 0 ],
									"quality" : [ "basic" ],
									"pitchshift" : [ 1.0 ]
								}

							}
 ]
					}
,
					"id" : "obj-75",
					"maxclass" : "playlist~",
					"numinlets" : 1,
					"numoutlets" : 5,
					"outlettype" : [ "signal", "signal", "signal", "", "dictionary" ],
					"patching_rect" : [ 387.0, 164.0, 150.0, 30.0 ],
					"style" : ""
				}

			}
, 			{
				"box" : 				{
					"id" : "obj-65",
					"maxclass" : "comment",
					"numinlets" : 1,
					"numoutlets" : 0,
					"patching_rect" : [ 589.0, 338.0, 97.0, 20.0 ],
					"presentation" : 1,
					"presentation_rect" : [ 206.0, 295.0, 97.0, 20.0 ],
					"style" : "",
					"text" : "Level Complete"
				}

			}
, 			{
				"box" : 				{
					"id" : "obj-63",
					"maxclass" : "comment",
					"numinlets" : 1,
					"numoutlets" : 0,
					"patching_rect" : [ 589.0, 258.0, 79.0, 20.0 ],
					"presentation" : 1,
					"presentation_rect" : [ 30.0, 277.0, 79.0, 20.0 ],
					"style" : "",
					"text" : "Game Over"
				}

			}
, 			{
				"box" : 				{
					"id" : "obj-61",
					"maxclass" : "comment",
					"numinlets" : 1,
					"numoutlets" : 0,
					"patching_rect" : [ 606.0, 25.0, 62.0, 20.0 ],
					"presentation" : 1,
					"presentation_rect" : [ 606.0, 25.0, 62.0, 20.0 ],
					"style" : "",
					"text" : "Scene 3"
				}

			}
, 			{
				"box" : 				{
					"id" : "obj-57",
					"maxclass" : "comment",
					"numinlets" : 1,
					"numoutlets" : 0,
					"patching_rect" : [ 381.0, 30.0, 60.0, 20.0 ],
					"presentation" : 1,
					"presentation_rect" : [ 381.0, 30.0, 60.0, 20.0 ],
					"style" : "",
					"text" : "Scene 2"
				}

			}
, 			{
				"box" : 				{
					"id" : "obj-55",
					"maxclass" : "comment",
					"numinlets" : 1,
					"numoutlets" : 0,
					"patching_rect" : [ 206.0, 30.0, 56.0, 20.0 ],
					"presentation" : 1,
					"presentation_rect" : [ 206.0, 30.0, 56.0, 20.0 ],
					"style" : "",
					"text" : "Scene 1"
				}

			}
, 			{
				"box" : 				{
					"id" : "obj-53",
					"maxclass" : "comment",
					"numinlets" : 1,
					"numoutlets" : 0,
					"patching_rect" : [ 30.0, 30.0, 39.0, 20.0 ],
					"presentation" : 1,
					"presentation_rect" : [ 30.0, 30.0, 39.0, 20.0 ],
					"style" : "",
					"text" : "Intro"
				}

			}
, 			{
				"box" : 				{
					"id" : "obj-51",
					"maxclass" : "toggle",
					"numinlets" : 1,
					"numoutlets" : 1,
					"outlettype" : [ "int" ],
					"parameter_enable" : 0,
					"patching_rect" : [ 547.0, 338.0, 24.0, 24.0 ],
					"presentation" : 1,
					"presentation_rect" : [ 206.0, 191.0, 84.0, 84.0 ],
					"style" : ""
				}

			}
, 			{
				"box" : 				{
					"id" : "obj-49",
					"maxclass" : "toggle",
					"numinlets" : 1,
					"numoutlets" : 1,
					"outlettype" : [ "int" ],
					"parameter_enable" : 0,
					"patching_rect" : [ 547.0, 258.0, 24.0, 24.0 ],
					"presentation" : 1,
					"presentation_rect" : [ 30.0, 191.0, 79.0, 79.0 ],
					"style" : ""
				}

			}
, 			{
				"box" : 				{
					"id" : "obj-47",
					"maxclass" : "toggle",
					"numinlets" : 1,
					"numoutlets" : 1,
					"outlettype" : [ "int" ],
					"parameter_enable" : 0,
					"patching_rect" : [ 610.0, 55.0, 24.0, 24.0 ],
					"presentation" : 1,
					"presentation_rect" : [ 606.0, 58.0, 87.0, 87.0 ],
					"style" : ""
				}

			}
, 			{
				"box" : 				{
					"id" : "obj-45",
					"maxclass" : "toggle",
					"numinlets" : 1,
					"numoutlets" : 1,
					"outlettype" : [ "int" ],
					"parameter_enable" : 0,
					"patching_rect" : [ 381.0, 61.0, 24.0, 24.0 ],
					"presentation" : 1,
					"presentation_rect" : [ 381.0, 61.0, 84.0, 84.0 ],
					"style" : ""
				}

			}
, 			{
				"box" : 				{
					"id" : "obj-43",
					"maxclass" : "toggle",
					"numinlets" : 1,
					"numoutlets" : 1,
					"outlettype" : [ "int" ],
					"parameter_enable" : 0,
					"patching_rect" : [ 206.0, 61.0, 24.0, 24.0 ],
					"presentation" : 1,
					"presentation_rect" : [ 206.0, 61.0, 84.0, 84.0 ],
					"style" : ""
				}

			}
, 			{
				"box" : 				{
					"data" : 					{
						"clips" : [ 							{
								"filename" : "06 Level Complete.mp3",
								"filekind" : "audiofile",
								"loop" : 0,
								"content_state" : 								{
									"originallength" : [ 0.0, "ticks" ],
									"formant" : [ 1.0 ],
									"mode" : [ "basic" ],
									"originaltempo" : [ 120.0 ],
									"originallengthms" : [ 0.0 ],
									"speed" : [ 1.0 ],
									"slurtime" : [ 0.0 ],
									"basictuning" : [ 440 ],
									"pitchcorrection" : [ 0 ],
									"followglobaltempo" : [ 0 ],
									"play" : [ 0 ],
									"timestretch" : [ 0 ],
									"formantcorrection" : [ 0 ],
									"quality" : [ "basic" ],
									"pitchshift" : [ 1.0 ]
								}

							}
 ]
					}
,
					"id" : "obj-39",
					"maxclass" : "playlist~",
					"numinlets" : 1,
					"numoutlets" : 5,
					"outlettype" : [ "signal", "signal", "signal", "", "dictionary" ],
					"patching_rect" : [ 395.0, 374.0, 150.0, 30.0 ],
					"style" : ""
				}

			}
, 			{
				"box" : 				{
					"data" : 					{
						"clips" : [ 							{
								"filename" : "10 Game Over 2.mp3",
								"filekind" : "audiofile",
								"loop" : 0,
								"content_state" : 								{
									"originallength" : [ 0.0, "ticks" ],
									"formant" : [ 1.0 ],
									"mode" : [ "basic" ],
									"originaltempo" : [ 120.0 ],
									"originallengthms" : [ 0.0 ],
									"speed" : [ 1.0 ],
									"slurtime" : [ 0.0 ],
									"basictuning" : [ 440 ],
									"pitchcorrection" : [ 0 ],
									"followglobaltempo" : [ 0 ],
									"play" : [ 0 ],
									"timestretch" : [ 0 ],
									"formantcorrection" : [ 0 ],
									"quality" : [ "basic" ],
									"pitchshift" : [ 1.0 ]
								}

							}
 ]
					}
,
					"id" : "obj-37",
					"maxclass" : "playlist~",
					"numinlets" : 1,
					"numoutlets" : 5,
					"outlettype" : [ "signal", "signal", "signal", "", "dictionary" ],
					"patching_rect" : [ 395.0, 301.0, 150.0, 30.0 ],
					"style" : ""
				}

			}
, 			{
				"box" : 				{
					"data" : 					{
						"clips" : [ 							{
								"filename" : "Atelier Final Instruction.wav",
								"filekind" : "audiofile",
								"loop" : 1,
								"content_state" : 								{
									"originallength" : [ 0.0, "ticks" ],
									"formant" : [ 1.0 ],
									"mode" : [ "basic" ],
									"originaltempo" : [ 120.0 ],
									"originallengthms" : [ 0.0 ],
									"speed" : [ 1.0 ],
									"slurtime" : [ 0.0 ],
									"basictuning" : [ 440 ],
									"pitchcorrection" : [ 0 ],
									"followglobaltempo" : [ 0 ],
									"play" : [ 0 ],
									"timestretch" : [ 0 ],
									"formantcorrection" : [ 0 ],
									"quality" : [ "basic" ],
									"pitchshift" : [ 1.0 ]
								}

							}
 ]
					}
,
					"id" : "obj-35",
					"maxclass" : "playlist~",
					"numinlets" : 1,
					"numoutlets" : 5,
					"outlettype" : [ "signal", "signal", "signal", "", "dictionary" ],
					"patching_rect" : [ 36.0, 159.0, 150.0, 30.0 ],
					"style" : ""
				}

			}
, 			{
				"box" : 				{
					"data" : 					{
						"clips" : [ 							{
								"filename" : "Scene1 Atelier Final.wav",
								"filekind" : "audiofile",
								"loop" : 0,
								"content_state" : 								{
									"originallength" : [ 0.0, "ticks" ],
									"formant" : [ 1.0 ],
									"mode" : [ "basic" ],
									"originaltempo" : [ 120.0 ],
									"originallengthms" : [ 0.0 ],
									"speed" : [ 1.0 ],
									"slurtime" : [ 0.0 ],
									"basictuning" : [ 440 ],
									"pitchcorrection" : [ 0 ],
									"followglobaltempo" : [ 0 ],
									"play" : [ 0 ],
									"timestretch" : [ 0 ],
									"formantcorrection" : [ 0 ],
									"quality" : [ "basic" ],
									"pitchshift" : [ 1.0 ]
								}

							}
 ]
					}
,
					"id" : "obj-28",
					"maxclass" : "playlist~",
					"numinlets" : 1,
					"numoutlets" : 5,
					"outlettype" : [ "signal", "signal", "signal", "", "dictionary" ],
					"patching_rect" : [ 206.0, 164.0, 150.0, 30.0 ],
					"style" : ""
				}

			}
, 			{
				"box" : 				{
					"id" : "obj-13",
					"maxclass" : "ezdac~",
					"numinlets" : 2,
					"numoutlets" : 0,
					"patching_rect" : [ 206.0, 349.5, 45.0, 45.0 ],
					"style" : ""
				}

			}
, 			{
				"box" : 				{
					"id" : "obj-8",
					"maxclass" : "toggle",
					"numinlets" : 1,
					"numoutlets" : 1,
					"outlettype" : [ "int" ],
					"parameter_enable" : 0,
					"patching_rect" : [ 36.0, 61.0, 24.0, 24.0 ],
					"presentation" : 1,
					"presentation_rect" : [ 30.0, 61.0, 84.0, 84.0 ],
					"style" : ""
				}

			}
 ],
		"lines" : [ 			{
				"patchline" : 				{
					"destination" : [ "obj-13", 1 ],
					"order" : 0,
					"source" : [ "obj-2", 0 ]
				}

			}
, 			{
				"patchline" : 				{
					"destination" : [ "obj-13", 0 ],
					"order" : 1,
					"source" : [ "obj-2", 0 ]
				}

			}
, 			{
				"patchline" : 				{
					"destination" : [ "obj-13", 1 ],
					"order" : 0,
					"source" : [ "obj-28", 0 ]
				}

			}
, 			{
				"patchline" : 				{
					"destination" : [ "obj-13", 0 ],
					"order" : 1,
					"source" : [ "obj-28", 0 ]
				}

			}
, 			{
				"patchline" : 				{
					"destination" : [ "obj-13", 1 ],
					"order" : 0,
					"source" : [ "obj-35", 0 ]
				}

			}
, 			{
				"patchline" : 				{
					"destination" : [ "obj-13", 0 ],
					"order" : 1,
					"source" : [ "obj-35", 0 ]
				}

			}
, 			{
				"patchline" : 				{
					"destination" : [ "obj-13", 1 ],
					"order" : 0,
					"source" : [ "obj-37", 0 ]
				}

			}
, 			{
				"patchline" : 				{
					"destination" : [ "obj-13", 0 ],
					"order" : 1,
					"source" : [ "obj-37", 0 ]
				}

			}
, 			{
				"patchline" : 				{
					"destination" : [ "obj-13", 1 ],
					"order" : 0,
					"source" : [ "obj-39", 0 ]
				}

			}
, 			{
				"patchline" : 				{
					"destination" : [ "obj-13", 0 ],
					"order" : 1,
					"source" : [ "obj-39", 0 ]
				}

			}
, 			{
				"patchline" : 				{
					"destination" : [ "obj-28", 0 ],
					"source" : [ "obj-43", 0 ]
				}

			}
, 			{
				"patchline" : 				{
					"destination" : [ "obj-75", 0 ],
					"source" : [ "obj-45", 0 ]
				}

			}
, 			{
				"patchline" : 				{
					"destination" : [ "obj-2", 0 ],
					"source" : [ "obj-47", 0 ]
				}

			}
, 			{
				"patchline" : 				{
					"destination" : [ "obj-37", 0 ],
					"source" : [ "obj-49", 0 ]
				}

			}
, 			{
				"patchline" : 				{
					"destination" : [ "obj-39", 0 ],
					"source" : [ "obj-51", 0 ]
				}

			}
, 			{
				"patchline" : 				{
					"destination" : [ "obj-13", 1 ],
					"order" : 0,
					"source" : [ "obj-75", 0 ]
				}

			}
, 			{
				"patchline" : 				{
					"destination" : [ "obj-13", 0 ],
					"order" : 1,
					"source" : [ "obj-75", 0 ]
				}

			}
, 			{
				"patchline" : 				{
					"destination" : [ "obj-35", 0 ],
					"source" : [ "obj-8", 0 ]
				}

			}
 ],
		"dependency_cache" : [ 			{
				"name" : "Scene1 Atelier Final.wav",
				"bootpath" : "~/Desktop",
				"patcherrelativepath" : "../..",
				"type" : "WAVE",
				"implicit" : 1
			}
, 			{
				"name" : "Atelier Final Instruction.wav",
				"bootpath" : "~/Desktop/Atelier Final Patch/media",
				"patcherrelativepath" : "../media",
				"type" : "WAVE",
				"implicit" : 1
			}
, 			{
				"name" : "10 Game Over 2.mp3",
				"bootpath" : "~/Desktop/Atelier Final Patch/media",
				"patcherrelativepath" : "../media",
				"type" : "Mp3 ",
				"implicit" : 1
			}
, 			{
				"name" : "06 Level Complete.mp3",
				"bootpath" : "~/Desktop/Atelier Final Patch/media",
				"patcherrelativepath" : "../media",
				"type" : "Mp3 ",
				"implicit" : 1
			}
, 			{
				"name" : "Atelier Final Scene 2 copy.mp3",
				"bootpath" : "~/Desktop/Atelier Final Patch/media",
				"patcherrelativepath" : "../media",
				"type" : "Mp3 ",
				"implicit" : 1
			}
, 			{
				"name" : "Atelier Final Scene 3.wav",
				"bootpath" : "~/Desktop/Atelier Final Patch/media",
				"patcherrelativepath" : "../media",
				"type" : "WAVE",
				"implicit" : 1
			}
 ],
		"autosave" : 0
	}

}
